# AST/ASF file generated using VICON BodyLanguage
# -----------------------------------------------
:version 1.10
:name VICON
:units
  mass 1.0
  length 0.45
  angle deg
:documentation
   .ast/.asf automatically generated from VICON data using
   VICON BodyBuilder and BodyLanguage model FoxedUp or BRILLIANT.MOD
:root
   order TX TY TZ RX RY RZ
   axis XYZ
   position 0 0 0  
   orientation 0 0 0 
:bonedata
  begin
     id 1 
     name lhipjoint
     direction 0.584852 -0.759097 0.285867 
     length 2.43633 
     axis 0 0 0  XYZ
  end
  begin
     id 2 
     name lfemur
     direction 0.34202 -0.939693 0  
     length 7.14704  
     axis 0 0 20  XYZ
    dof rx ry rz
    limits (-160.0 20.0)
           (-70.0 70.0)
           (-60.0 70.0)
  end
  begin
     id 3 
     name ltibia
     direction 0.342022 -0.939692 0   
     length 7.68483   
     axis 0 0 20   XYZ
    dof rx
    limits (-10.0 170.0)
  end
  begin
     id 4 
     name lfoot
     direction 0.0999605 -0.274639 0.956337   
     length 2.40452   
     axis -90 7.62852e-016 20   XYZ
    dof rx rz
    limits (-45.0 90.0)
           (-70.0 20.0)
  end
  begin
     id 5 
     name ltoes
     direction 1.53468e-011 -4.21881e-011 1   
     length 1.19837   
     axis -90 7.62852e-016 20   XYZ
    dof rx
    limits (-90.0 20.0)
  end
  begin
     id 6 
     name rhipjoint
     direction -0.569886 -0.769002 0.289597   
     length 2.40495  
     axis 0 0 0  XYZ 
  end
  begin
     id 7 
     name rfemur
     direction -0.34202 -0.939693 0   
     length 7.45086   
     axis 0 0 -20   XYZ
    dof rx ry rz
    limits (-160.0 20.0)
           (-70.0 70.0)
           (-70.0 60.0)
  end
  begin
     id 8 
     name rtibia
     direction -0.34202 -0.939693 0   
     length 7.76831   
     axis 0 0 -20   XYZ
    dof rx
    limits (-10.0 170.0)
 end
 begin
     id 9 
     name rfoot
     direction -0.0798572 -0.219406 0.97236   
     length 2.35911  
     axis -90 -7.62852e-016 -20   XYZ
    dof rx rz
    limits (-45.0 90.0)
           (-20.0 70.0)
  end
  begin
     id 10 
     name rtoes
     direction -1.53469e-011 -4.21728e-011 1   
     length 1.18261   
     axis -90 -7.62852e-016 -20   XYZ
    dof rx
    limits (-90.0 20.0)
  end
  begin
     id 11 
     name lowerback
     direction 0.0242088 0.999437 0.0232389   
     length 2.1561   
     axis 0 0 0   XYZ
    dof rx ry rz
    limits (-20.0 45.0)
           (-30.0 30.0)
           (-30.0 30.0)
  end
  begin
     id 12 
     name upperback
     direction -0.0356893 0.999013 -0.0264323   
     length 2.14431   
     axis 0 0 0   XYZ
    dof rx ry rz
    limits (-20.0 45.0)
           (-30.0 30.0)
           (-30.0 30.0)
  end
  begin
     id 13 
     name thorax
     direction -0.0472163 0.998194 -0.0371284   
     length 2.16169   
     axis 0 0 0   XYZ
    dof rx ry rz
    limits (-20.0 45.0)
           (-30.0 30.0)
           (-30.0 30.0)
  end
  begin
     id 14 
     name lowerneck
     direction 0.00863244 0.999921 0.00911972   
     length 1.58651   
     axis 0 0 0   XYZ
    dof rx ry rz
    limits (-20.0 45.0)
           (-30.0 30.0)
           (-30.0 30.0)
  end
  begin
     id 15 
     name upperneck
     direction 0.149523 0.979068 -0.138086   
     length 1.57486   
     axis 0 0 0   XYZ
    dof rx ry rz
    limits (-20.0 45.0)
           (-30.0 30.0)
           (-30.0 30.0)
  end
  begin
     id 16
     name head
     direction 0.0445219 0.997708 -0.0509576  
     length 1.6019  
     axis 0 0 0   XYZ
    dof rx ry rz
    limits (-20.0 45.0)
           (-30.0 30.0)
           (-30.0 30.0)
  end
  begin
     id 17 
     name lclavicle
     direction 0.911271 0.381667 -0.154644  
     length 3.80848  
     axis 0 0 0   XYZ
    dof ry rz
    limits (-20.0 10.0)
           (0.0 20.0)
  end
  begin
     id 18 
     name lhumerus
     direction 1 -4.49003e-011 2.1308e-027   
     length 5.19069   
     axis 180 -30 -90   XYZ
    dof rx ry rz
    limits (-60.0 90.0)
           (-90.0 90.0)
           (-90.0 90.0)
  end
  begin
     id 19
     name lradius
     direction 1 -4.48914e-011 4.01554e-027   
     length 3.30016   
     axis 180 -30 -90   XYZ
    dof rx
    limits (-10.0 170.0)
  end
  begin
     id 20
     name lwrist
     direction 1 -4.49003e-011 1.1934e-026   
     length 1.65008   
     axis -8.46377e-015 90 90   XYZ
    dof ry
    limits (-180.0 0.0)
 end
  begin
     id 21 
     name lhand
     direction 1 -4.49034e-011 2.38659e-026   
     length 0.707698   
     axis -1.52313e-014 90 90   XYZ
    dof rx rz
    limits (-90.0 90.0)
           (-45.0 45.0)
  end
  begin
     id 22 
     name lfingers
     direction 1 -4.48691e-011 4.77775e-026   
     length 0.570564   
     axis -3.04623e-014 90 90   XYZ
    dof rx
    limits (0.0 90.0)
  end
  begin
     id 23
     name lthumb
     direction 0.707107 -6.34832e-011 0.707107   
     length 0.819219   
     axis -90 45 -1.62303e-014   XYZ
    dof rx rz
    limits (-45.0 45.0)
           (-45.0 45.0)
  end
  begin
     id 24 
     name rclavicle
     direction -0.815579 0.573708 -0.0754329   
     length 3.54371  
     axis 0 0 0   XYZ 
    dof ry rz
    limits (-10.0 20.0)
           (-20.0 0.0)
  end
  begin
     id 25 
     name rhumerus
     direction -1 -4.48956e-011 3.05351e-028  
     length 5.23924   
     axis 180 30 90   XYZ
    dof rx ry rz
    limits (-90.0 60.0)
           (-90.0 90.0)
           (-90.0 90.0)
  end
  begin
     id 26 
     name rradius
     direction -1 -4.49013e-011 3.53849e-027   
     length 3.32953   
     axis 180 30 90   XYZ
    dof rx
    limits (-10.0 170.0)
  end
  begin
     id 27 
     name rwrist
     direction -1 -4.48901e-011 1.19374e-026   
     length 1.66477   
     axis -8.46377e-015 -90 -90   XYZ
    dof ry
    limits (-180.0 0.0)
  end
  begin
     id 28
     name rhand
     direction -1 -4.48877e-011 2.38764e-026   
     length 0.607414   
     axis -1.52313e-014 -90 -90   XYZ
    dof rx rz
    limits (-90.0 90.0)
           (-45.0 45.0)
  end
  begin
     id 29
     name rfingers
     direction -1 -4.48882e-011 4.77521e-026   
     length 0.489712   
     axis -3.04623e-014 -90 -90   XYZ
    dof rx
    limits (0.0 90.0)
  end
  begin
     id 30
     name rthumb
     direction -0.707107 -6.34974e-011 0.707107   
     length 0.703132   
     axis -90 -45 1.62303e-014   XYZ
    dof rx rz
    limits (-45.0 45.0)
           (-45.0 45.0)
  end
:hierarchy
  begin
    root lhipjoint rhipjoint lowerback
    lhipjoint lfemur
    lfemur ltibia
    ltibia lfoot
    lfoot ltoes
    rhipjoint rfemur
    rfemur rtibia
    rtibia rfoot
    rfoot rtoes
    lowerback upperback
    upperback thorax
    thorax lowerneck lclavicle rclavicle
    lowerneck upperneck
    upperneck head
    lclavicle lhumerus
    lhumerus lradius
    lradius lwrist
    lwrist lhand lthumb
    lhand lfingers
    rclavicle rhumerus
    rhumerus rradius
    rradius rwrist
    rwrist rhand rthumb
    rhand rfingers
  end

#!OML:ASF E:\VariousWalksJay\Project 1\Capture day 1\Session 1\Actor2.ASF
:FULLY-SPECIFIED
:DEGREES
307
root 24.7598 16.5622 -23.1479 6.3989 -38.9832 1.43198
lowerback 5.04263 -4.33963 1.78691
upperback 10.8843 -5.73778 -5.33596
thorax 7.94672 -2.55853 -6.76607
lowerneck 3.58737 2.31326 1.50048
upperneck 10.2213 2.71798 2.98367
head 2.59706 1.41192 0.724319
rclavicle -1.59028e-014 -1.11319e-014
rhumerus -38.6417 15.2694 -94.833
rradius 59.2405
rwrist 3.53975
rhand -22.6203 -5.66531
rfingers 7.12502
rthumb 3.8098 -35.611
lclavicle -1.59028e-014 -1.11319e-014
lhumerus -1.90923 -29.0224 73.7785
lradius 68.1308
lwrist 58.8954
lhand -36.3951 13.2862
lfingers 7.12502
lthumb -9.491 43.0525
rfemur -45.5399 -0.870437 25.7341
rtibia 30.0455
rfoot -13.9481 -8.89355
rtoes -8.90117
lfemur 4.39577 17.2814 -25.8565
ltibia 31.0587
lfoot -24.4948 -1.86457
ltoes -22.7982
308
root 24.6863 16.5681 -23.0401 6.74046 -39.2031 1.39302
lowerback 5.12315 -4.35833 1.74588
upperback 10.7612 -5.76404 -5.28356
thorax 7.76773 -2.58427 -6.66665
lowerneck 3.09181 2.36507 1.60548
upperneck 10.3685 2.783 2.87075
head 2.73816 1.45171 0.681263
rclavicle -7.95139e-016 5.08889e-014
rhumerus -38.6039 15.4251 -94.7924
rradius 59.2938
rwrist 3.53116
rhand -22.6285 -5.68117
rfingers 7.12502
rthumb 3.80185 -35.627
lclavicle -7.95139e-016 5.08889e-014
lhumerus -2.87073 -28.8717 74.279
lradius 68.6569
lwrist 58.839
lhand -36.4218 13.284
lfingers 7.12502
lthumb -9.51678 43.0491
rfemur -45.9423 -0.585998 25.6688
rtibia 30.9367
rfoot -13.8103 -8.7051
rtoes -8.13643
lfemur 4.75722 16.9316 -25.9226
ltibia 30.4962
lfoot -24.0171 -1.75493
ltoes -23.3459
309
root 24.6122 16.5743 -22.9331 7.09888 -39.376 1.33307
lowerback 5.21576 -4.37743 1.70769
upperback 10.6477 -5.79141 -5.21367
thorax 7.59425 -2.61044 -6.54992
lowerneck 2.61666 2.40635 1.71954
upperneck 10.4781 2.83484 2.76481
head 2.86431 1.48478 0.637988
rclavicle 2.38542e-015 6.36111e-015
rhumerus -38.5712 15.5456 -94.7299
rradius 59.3771
rwrist 3.50343
rhand -22.6495 -5.70133
rfingers 7.12502
rthumb 3.78154 -35.6475
lclavicle 2.38542e-015 6.36111e-015
lhumerus -3.79213 -28.7608 74.7794
lradius 69.196
lwrist 58.7648
lhand -36.486 13.1973
lfingers 7.12502
lthumb -9.57871 42.9596
rfemur -46.3176 -0.323239 25.6202
rtibia 31.764
rfoot -13.6343 -8.56916
rtoes -7.38117
lfemur 5.07036 16.5857 -25.9545
ltibia 30.014
lfoot -23.5148 -1.68081
ltoes -23.8247
310
root 24.538 16.5814 -22.8271 7.47114 -39.484 1.25397
lowerback 5.30888 -4.41136 1.69803
upperback 10.5488 -5.83852 -5.13994
thorax 7.43278 -2.64358 -6.44629
lowerneck 2.16515 2.44488 1.83247
upperneck 10.5518 2.88259 2.67734
head 2.97479 1.51559 0.599946
rclavicle -9.38264e-014 6.52014e-014
rhumerus -38.5325 15.6375 -94.6679
rradius 59.4759
rwrist 3.45772
rhand -22.6849 -5.7214
rfingers 7.12502
rthumb 3.74738 -35.6682
lclavicle -9.38264e-014 6.52014e-014
lhumerus -4.66693 -28.6744 75.2553
lradius 69.739
lwrist 58.6594
lhand -36.5487 13.0682
lfingers 7.12502
lthumb -9.63921 42.8277
rfemur -46.659 -0.0989345 25.5885
rtibia 32.5205
rfoot -13.4263 -8.47886
rtoes -6.64509
lfemur 5.31994 16.236 -25.9486
ltibia 29.6444
lfoot -22.9883 -1.64591
ltoes -24.2315
311
root 24.4636 16.5891 -22.7229 7.87101 -39.5451 1.14674
lowerback 5.38893 -4.44845 1.73455
upperback 10.4697 -5.88924 -5.07453
thorax 7.29595 -2.67354 -6.38048
lowerneck 1.72479 2.47804 1.96164
upperneck 10.5922 2.92102 2.61977
head 3.07263 1.54278 0.567997
rclavicle -8.5875e-014 5.725e-014
rhumerus -38.4785 15.6737 -94.6213
rradius 59.595
rwrist 3.40069
rhand -22.732 -5.73922
rfingers 7.12502
rthumb 3.70187 -35.6868
lclavicle -8.5875e-014 5.725e-014
lhumerus -5.4624 -28.6415 75.669
lradius 70.2815
lwrist 58.528
lhand -36.6218 12.8906
lfingers 7.12502
lthumb -9.70979 42.6467
rfemur -46.9746 0.110844 25.5822
rtibia 33.2084
rfoot -13.1869 -8.43458
rtoes -5.90533
lfemur 5.47197 15.904 -25.8948
ltibia 29.4267
lfoot -22.4353 -1.66721
ltoes -24.5146
312
root 24.3898 16.5974 -22.6208 8.29423 -39.5483 1.0154
lowerback 5.4946 -4.49197 1.77912
upperback 10.3935 -5.94882 -4.98593
thorax 7.14834 -2.70846 -6.29194
lowerneck 1.28838 2.50173 2.09078
upperneck 10.6215 2.94668 2.55755
head 3.16676 1.56332 0.534095
rclavicle -1.36764e-013 3.02153e-014
rhumerus -38.4295 15.6879 -94.5491
rradius 59.7336
rwrist 3.33362
rhand -22.7794 -5.74738
rfingers 7.12502
rthumb 3.65611 -35.6958
lclavicle -1.36764e-013 3.02153e-014
lhumerus -6.20889 -28.6264 76.0924
lradius 70.817
lwrist 58.3572
lhand -36.6939 12.6985
lfingers 7.12502
lthumb -9.77934 42.4515
rfemur -47.2678 0.300235 25.594
rtibia 33.8403
rfoot -12.9478 -8.4317
rtoes -5.15011
lfemur 5.50793 15.5808 -25.7938
ltibia 29.3981
lfoot -21.861 -1.7453
ltoes -24.6635
313
root 24.3169 16.6058 -22.5211 8.74027 -39.5088 0.859279
lowerback 5.61075 -4.54086 1.86296
upperback 10.3319 -6.0149 -4.89891
thorax 7.00685 -2.74337 -6.2271
lowerneck 0.846415 2.52229 2.23096
upperneck 10.6342 2.96606 2.50852
head 3.25695 1.58142 0.502269
rclavicle -8.5875e-014 1.90833e-014
rhumerus -38.3651 15.6734 -94.4855
rradius 59.8873
rwrist 3.26208
rhand -22.8393 -5.77048
rfingers 7.12502
rthumb 3.59829 -35.7198
lclavicle -8.5875e-014 1.90833e-014
lhumerus -6.87323 -28.6408 76.4676
lradius 71.3448
lwrist 58.1742
lhand -36.7472 12.5358
lfingers 7.12502
lthumb -9.83076 42.2863
rfemur -47.547 0.47791 25.6265
rtibia 34.4297
rfoot -12.7223 -8.46528
rtoes -4.3376
lfemur 5.40996 15.2764 -25.6463
ltibia 29.5915
lfoot -21.2731 -1.87953
ltoes -24.6754
314
root 24.2456 16.6139 -22.4244 9.19734 -39.4336 0.694315
lowerback 5.76517 -4.59155 1.95011
upperback 10.2721 -6.08312 -4.79744
thorax 6.84681 -2.78029 -6.14493
lowerneck 0.402078 2.53519 2.36785
upperneck 10.6355 2.97509 2.45258
head 3.34436 1.59394 0.468331
rclavicle -1.59028e-015 4.77083e-015
rhumerus -38.3037 15.6469 -94.4043
rradius 60.0589
rwrist 3.18863
rhand -22.8946 -5.79889
rfingers 7.12502
rthumb 3.54489 -35.7492
lclavicle -1.59028e-015 4.77083e-015
lhumerus -7.48084 -28.6711 76.8395
lradius 71.869
lwrist 57.9811
lhand -36.7509 12.5206
lfingers 7.12502
lthumb -9.83431 42.2709
rfemur -47.8225 0.647903 25.663
rtibia 34.9932
rfoot -12.5261 -8.53261
rtoes -3.52271
lfemur 5.16651 14.9874 -25.467
ltibia 30.0272
lfoot -20.6709 -2.0722
ltoes -24.5537
315
root 24.176 16.621 -22.3306 9.65376 -39.3462 0.528963
lowerback 5.95593 -4.63579 2.04012
upperback 10.2208 -6.14215 -4.69228
thorax 6.67722 -2.81291 -6.05778
lowerneck -0.0323499 2.54081 2.49352
upperneck 10.6021 2.97446 2.40442
head 3.41802 1.60109 0.43784
rclavicle 1.35174e-014 -3.18055e-014
rhumerus -38.2319 15.5993 -94.3135
rradius 60.2416
rwrist 3.12216
rhand -22.9493 -5.82454
rfingers 7.12502
rthumb 3.49201 -35.7757
lclavicle 1.35174e-014 -3.18055e-014
lhumerus -8.01802 -28.7198 77.1909
lradius 72.3894
lwrist 57.7934
lhand -36.7821 12.4935
lfingers 7.12502
lthumb -9.8644 42.2425
rfemur -48.0992 0.813173 25.7014
rtibia 35.545
rfoot -12.3566 -8.61669
rtoes -2.79857
lfemur 4.77886 14.7231 -25.2671
ltibia 30.7106
lfoot -20.0543 -2.31896
ltoes -24.3189
316
root 24.1083 16.6267 -22.2396 10.1 -39.2657 0.368218
lowerback 6.18338 -4.6684 2.12902
upperback 10.1791 -6.18505 -4.58462
thorax 6.50007 -2.83798 -5.965
lowerneck -0.458927 2.54115 2.60797
upperneck 10.5368 2.96771 2.3548
head 3.47934 1.60434 0.407951
rclavicle 1.82882e-014 -1.43125e-014
rhumerus -38.1518 15.5389 -94.2124
rradius 60.4353
rwrist 3.06511
rhand -22.9995 -5.84185
rfingers 7.12502
rthumb 3.44354 -35.7938
lclavicle 1.82882e-014 -1.43125e-014
lhumerus -8.49261 -28.7891 77.525
lradius 72.9151
lwrist 57.6249
lhand -36.8184 12.513
lfingers 7.12502
lthumb -9.89944 42.2602
rfemur -48.3818 0.974509 25.7417
rtibia 36.0992
rfoot -12.2236 -8.70967
rtoes -2.11105
lfemur 4.25807 14.4891 -25.0567
ltibia 31.6332
lfoot -19.4231 -2.60426
ltoes -24.0199
317
root 24.0429 16.631 -22.1509 10.5216 -39.2042 0.220339
lowerback 6.44118 -4.6859 2.22967
upperback 10.1557 -6.20668 -4.49033
thorax 6.32641 -2.8511 -5.89234
lowerneck -0.864375 2.53278 2.70947
upperneck 10.4205 2.95047 2.31563
head 3.51865 1.60156 0.382217
rclavicle 1.60618e-013 -1.59028e-014
rhumerus -38.0572 15.4538 -94.1158
rradius 60.6406
rwrist 3.01741
rhand -23.0493 -5.86684
rfingers 7.12502
rthumb 3.39553 -35.8195
lclavicle 1.60618e-013 -1.59028e-014
lhumerus -8.89215 -28.8892 77.8175
lradius 73.4467
lwrist 57.4774
lhand -36.9054 12.4843
lfingers 7.12502
lthumb -9.98337 42.2275
rfemur -48.6644 1.12551 25.7795
rtibia 36.6651
rfoot -12.1194 -8.79487
rtoes -1.49638
lfemur 3.62457 14.2778 -24.8493
ltibia 32.7753
lfoot -18.7725 -2.91859
ltoes -23.6652
318
root 23.9798 16.6337 -22.0644 10.9089 -39.1662 0.0880401
lowerback 6.71388 -4.68733 2.36232
upperback 10.1632 -6.20518 -4.42667
thorax 6.17532 -2.84875 -5.8721
lowerneck -1.24943 2.5155 2.8093
upperneck 10.247 2.92197 2.29019
head 3.53398 1.59284 0.359678
rclavicle -1.4233e-013 3.97569e-014
rhumerus -37.933 15.3264 -94.0441
rradius 60.8541
rwrist 2.97667
rhand -23.0931 -5.88222
rfingers 7.12502
rthumb 3.35318 -35.8356
lclavicle -1.4233e-013 3.97569e-014
lhumerus -9.20334 -29.0342 78.0373
lradius 73.9869
lwrist 57.3476
lhand -37.1361 12.1608
lfingers 7.12502
lthumb -10.2059 41.8933
rfemur -48.941 1.26387 25.8121
rtibia 37.2479
rfoot -12.0468 -8.86201
rtoes -0.821048
lfemur 2.89513 14.0804 -24.6507
ltibia 34.1174
lfoot -18.0959 -3.24517
ltoes -23.2737
319
root 23.9191 16.635 -21.9794 11.2571 -39.1569 -0.0281806
lowerback 7.00694 -4.67136 2.51043
upperback 10.1989 -6.17929 -4.38071
thorax 6.04374 -2.83205 -5.8809
lowerneck -1.61098 2.49174 2.89319
upperneck 10.0223 2.88662 2.27303
head 3.52649 1.57959 0.341207
rclavicle -2.94201e-014 2.38542e-014
rhumerus -37.7907 15.1807 -93.9802
rradius 61.0865
rwrist 2.93738
rhand -23.1379 -5.89528
rfingers 7.12502
rthumb 3.3099 -35.8493
lclavicle -2.94201e-014 2.38542e-014
lhumerus -9.43234 -29.2183 78.2066
lradius 74.5337
lwrist 57.2317
lhand -37.3635 11.8672
lfingers 7.12502
lthumb -10.4253 41.5887
rfemur -49.2054 1.38244 25.8433
rtibia 37.8495
rfoot -11.9877 -8.89617
rtoes -0.147538
lfemur 2.08515 13.8875 -24.4687
ltibia 35.6376
lfoot -17.3894 -3.56512
ltoes -22.8141
320
root 23.8608 16.6345 -21.896 11.5678 -39.1666 -0.133444
lowerback 7.32831 -4.6396 2.66383
upperback 10.2579 -6.13157 -4.33629
thorax 5.92438 -2.80373 -5.89499
lowerneck -1.94603 2.45592 2.95
upperneck 9.75086 2.83886 2.25264
head 3.49717 1.55827 0.324817
rclavicle 4.13472e-014 -9.54166e-015
rhumerus -37.6374 15.0315 -93.9055
rradius 61.3412
rwrist 2.89327
rhand -23.1916 -5.90745
rfingers 7.12502
rthumb 3.25808 -35.8623
lclavicle 4.13472e-014 -9.54166e-015
lhumerus -9.58929 -29.4237 78.358
lradius 75.0832
lwrist 57.1027
lhand -37.6184 11.4774
lfingers 7.12502
lthumb -10.6712 41.1865
rfemur -49.4545 1.47374 25.8793
rtibia 38.4654
rfoot -11.933 -8.89568
rtoes 0.526285
lfemur 1.20076 13.6845 -24.3001
ltibia 37.3227
lfoot -16.645 -3.87093
ltoes -22.2449
